<svg xmlns="http://www.w3.org/2000/svg" viewBox="0 0 980 420" role="img" aria-labelledby="title desc">
  <title id="title">Scalar backprop graph</title>
  <desc id="desc">A simple computation graph showing input scalars flowing through multiplication, addition, and a final loss.</desc>
  <defs>
    <style>
      .bg { fill: #fbfbf8; }
      .box { fill: #fff; stroke: #d7dce2; stroke-width: 1.5; }
      .ink { fill: #1f2933; }
      .muted { fill: #627084; }
      .blue { fill: #2563eb; }
      .green { fill: #059669; }
      .orange { fill: #d97706; }
      .red { fill: #dc2626; }
      .line { stroke: #66758a; stroke-width: 1.8; fill: none; marker-end: url(#arrow); }
      .label { font: 700 20px ui-monospace, SFMono-Regular, Menlo, Consolas, monospace; }
      .text { font: 500 15px ui-monospace, SFMono-Regular, Menlo, Consolas, monospace; }
      .small { font: 500 12px ui-monospace, SFMono-Regular, Menlo, Consolas, monospace; }
    </style>
    <marker id="arrow" viewBox="0 0 10 10" refX="8" refY="5" markerWidth="7" markerHeight="7" orient="auto">
      <path d="M 0 0 L 10 5 L 0 10 z" fill="#66758a"/>
    </marker>
  </defs>
  <rect class="bg" width="980" height="420" rx="18"/>
  <text x="38" y="48" class="label ink">Backprop is chain rule over a graph</text>
  <text x="38" y="78" class="text muted">Forward computes values. Backward sends gradient signal in reverse.</text>

  <rect x="56" y="160" width="92" height="60" rx="8" class="box"/>
  <text x="84" y="193" class="label blue">a</text>
  <text x="75" y="218" class="small muted">input</text>

  <rect x="56" y="250" width="92" height="60" rx="8" class="box"/>
  <text x="84" y="283" class="label blue">b</text>
  <text x="75" y="308" class="small muted">input</text>

  <path d="M156 190 L235 190" class="line"/>
  <path d="M156 280 L235 235" class="line"/>
  <rect x="250" y="195" width="100" height="60" rx="8" class="box"/>
  <text x="282" y="229" class="label green">*</text>
  <text x="276" y="254" class="small muted">mul</text>

  <rect x="390" y="195" width="100" height="60" rx="8" class="box"/>
  <text x="420" y="229" class="label orange">+</text>
  <text x="416" y="254" class="small muted">add</text>

  <path d="M350 225 L380 225" class="line"/>
  <rect x="530" y="195" width="100" height="60" rx="8" class="box"/>
  <text x="564" y="229" class="label red">L</text>
  <text x="548" y="254" class="small muted">loss</text>

  <path d="M490 225 L520 225" class="line"/>
  <text x="665" y="210" class="small muted">backward</text>
  <path d="M630 225 L760 225" class="line"/>
  <text x="772" y="210" class="small muted">dL/dx flows back</text>

  <text x="250" y="345" class="text ink">multiply: gradient gets scaled by the other input</text>
  <text x="250" y="370" class="text ink">add: gradient is copied to both inputs</text>
</svg>
