<svg xmlns="http://www.w3.org/2000/svg" viewBox="0 0 980 460" role="img" aria-labelledby="title desc">
  <title id="title">One-hot to row lookup</title>
  <desc id="desc">A diagram showing a one-hot vector selecting a row from a weight matrix.</desc>
  <defs>
    <style>
      .bg { fill: #fbfbf8; }
      .panel { fill: #fff; stroke: #d7dce2; stroke-width: 1.5; }
      .ink { fill: #1f2933; }
      .muted { fill: #627084; }
      .blue { fill: #2563eb; }
      .green { fill: #059669; }
      .orange { fill: #d97706; }
      .cell { fill: #eef2ff; stroke: #8ea2d8; stroke-width: 1.1; }
      .rowhi { fill: #fef3c7; stroke: #d97706; stroke-width: 1.2; }
      .line { stroke: #66758a; stroke-width: 1.7; fill: none; marker-end: url(#arrow); }
      .label { font: 700 20px ui-monospace, SFMono-Regular, Menlo, Consolas, monospace; }
      .text { font: 500 15px ui-monospace, SFMono-Regular, Menlo, Consolas, monospace; }
      .small { font: 500 12px ui-monospace, SFMono-Regular, Menlo, Consolas, monospace; }
    </style>
    <marker id="arrow" viewBox="0 0 10 10" refX="8" refY="5" markerWidth="7" markerHeight="7" orient="auto">
      <path d="M 0 0 L 10 5 L 0 10 z" fill="#66758a"/>
    </marker>
  </defs>
  <rect class="bg" width="980" height="460" rx="18"/>
  <text x="38" y="48" class="label ink">One-hot plus matrix multiply is row lookup</text>
  <text x="38" y="78" class="text muted">The single 1 chooses one row.</text>

  <rect x="52" y="128" width="230" height="190" rx="10" class="panel"/>
  <text x="77" y="161" class="text blue">one-hot x [1,0,0]</text>
  <g transform="translate(88 195)">
    <rect x="0" y="0" width="48" height="38" rx="6" class="rowhi"/><text x="20" y="25" class="small ink">1</text>
    <rect x="58" y="0" width="48" height="38" rx="6" class="cell"/><text x="76" y="25" class="small ink">0</text>
    <rect x="116" y="0" width="48" height="38" rx="6" class="cell"/><text x="134" y="25" class="small ink">0</text>
  </g>
  <text x="77" y="275" class="small muted">one active position</text>

  <path d="M300 223 L368 223" class="line"/>

  <rect x="385" y="108" width="230" height="270" rx="10" class="panel"/>
  <text x="410" y="141" class="text green">W [3,2]</text>
  <g transform="translate(420 178)">
    <rect x="0" y="0" width="120" height="36" rx="6" class="rowhi"/>
    <rect x="0" y="46" width="120" height="36" rx="6" class="cell"/>
    <rect x="0" y="92" width="120" height="36" rx="6" class="cell"/>
    <text x="12" y="24" class="small ink">row 0</text>
    <text x="12" y="70" class="small ink">row 1</text>
    <text x="12" y="116" class="small ink">row 2</text>
  </g>
  <text x="410" y="338" class="small muted">highlighted row</text>
  <text x="410" y="361" class="small muted">is selected</text>

  <path d="M622 223 L690 223" class="line"/>

  <rect x="705" y="128" width="225" height="190" rx="10" class="panel"/>
  <text x="730" y="161" class="text orange">selected row</text>
  <g transform="translate(745 198)">
    <rect x="0" y="0" width="120" height="38" rx="6" class="rowhi"/><text x="23" y="25" class="small ink">scores</text>
  </g>
  <text x="730" y="275" class="small muted">same as row 0 of W</text>
  <text x="730" y="298" class="small muted">for the active token</text>
</svg>
