<svg xmlns="http://www.w3.org/2000/svg" viewBox="0 0 960 340" role="img" aria-labelledby="title desc">
  <title id="title">Standard PyTorch training step</title>
  <desc id="desc">A diagram showing forward, loss, zero gradients, backward, and optimizer step.</desc>
  <defs>
    <style>
      .bg { fill: #fbfbf8; }
      .box { fill: #fff; stroke: #d7dce2; stroke-width: 1.5; }
      .ink { fill: #1f2933; }
      .muted { fill: #627084; }
      .blue { fill: #2563eb; }
      .green { fill: #059669; }
      .orange { fill: #d97706; }
      .red { fill: #dc2626; }
      .line { stroke: #66758a; stroke-width: 1.7; fill: none; marker-end: url(#arrow); }
      .label { font: 700 20px ui-monospace, SFMono-Regular, Menlo, Consolas, monospace; }
      .text { font: 500 15px ui-monospace, SFMono-Regular, Menlo, Consolas, monospace; }
      .small { font: 500 12px ui-monospace, SFMono-Regular, Menlo, Consolas, monospace; }
    </style>
    <marker id="arrow" viewBox="0 0 10 10" refX="8" refY="5" markerWidth="7" markerHeight="7" orient="auto">
      <path d="M 0 0 L 10 5 L 0 10 z" fill="#66758a"/>
    </marker>
  </defs>
  <rect class="bg" width="960" height="340" rx="18"/>
  <text x="38" y="48" class="label ink">The standard training loop has four jobs</text>
  <text x="38" y="78" class="text muted">Forward computes values. Backward computes gradients.</text>
  <text x="38" y="101" class="text muted">Step updates weights.</text>

  <rect x="52" y="130" width="150" height="78" rx="9" class="box"/>
  <text x="82" y="162" class="label blue">forward</text>
  <text x="82" y="188" class="small muted">pred = model(x)</text>
  <path d="M214 169 L284 169" class="line"/>

  <rect x="300" y="130" width="135" height="78" rx="9" class="box"/>
  <text x="335" y="162" class="label green">loss</text>
  <text x="333" y="188" class="small muted">compare y</text>
  <path d="M447 169 L517 169" class="line"/>

  <rect x="535" y="130" width="150" height="78" rx="9" class="box"/>
  <text x="560" y="162" class="label orange">backward</text>
  <text x="560" y="188" class="small muted">loss.backward()</text>
  <path d="M697 169 L767 169" class="line"/>

  <rect x="785" y="130" width="125" height="78" rx="9" class="box"/>
  <text x="812" y="162" class="label red">step</text>
  <text x="808" y="188" class="small muted">update W</text>

  <text x="175" y="270" class="text ink">Always clear old gradients before the new backward pass:</text>
  <text x="265" y="300" class="text ink">zero_grad() -> backward() -> step()</text>
</svg>
