<svg xmlns="http://www.w3.org/2000/svg" viewBox="0 0 940 430" role="img" aria-labelledby="title desc">
  <title id="title">Context table growth from bigram to longer context</title>
  <desc id="desc">A diagram showing how one character context has 27 contexts, two character context has 729 contexts, and three character context has 19683 contexts.</desc>
  <defs>
    <style>
      .bg { fill: #fbfbf8; }
      .panel { fill: #ffffff; stroke: #d7dce2; stroke-width: 1.5; }
      .ink { fill: #1f2933; }
      .muted { fill: #627084; }
      .blue { fill: #2563eb; }
      .green { fill: #059669; }
      .orange { fill: #d97706; }
      .grid { fill: #f8fafc; stroke: #aeb8c5; stroke-width: 1; }
      .hi { fill: #fef3c7; stroke: #d97706; stroke-width: 1.2; }
      .line { stroke: #66758a; stroke-width: 1.7; fill: none; marker-end: url(#arrow); }
      .label { font: 700 20px ui-monospace, SFMono-Regular, Menlo, Consolas, monospace; }
      .text { font: 500 15px ui-monospace, SFMono-Regular, Menlo, Consolas, monospace; }
      .small { font: 500 12px ui-monospace, SFMono-Regular, Menlo, Consolas, monospace; }
    </style>
    <marker id="arrow" viewBox="0 0 10 10" refX="8" refY="5" markerWidth="7" markerHeight="7" orient="auto">
      <path d="M 0 0 L 10 5 L 0 10 z" fill="#66758a"/>
    </marker>
  </defs>
  <rect class="bg" width="940" height="430" rx="18"/>
  <text x="38" y="48" class="label ink">Why count tables explode</text>
  <text x="38" y="78" class="text muted">Every extra context character multiplies the number of possible rows by 27.</text>

  <rect x="38" y="120" width="260" height="230" rx="10" class="panel"/>
  <text x="63" y="153" class="text blue">1 previous char</text>
  <text x="63" y="181" class="label ink">27 rows</text>
  <text x="63" y="211" class="small muted">shape: [27, 27]</text>
  <g transform="translate(63 235)">
    <rect width="130" height="72" class="grid"/>
    <line x1="0" y1="18" x2="130" y2="18" stroke="#d0d7df"/>
    <line x1="0" y1="36" x2="130" y2="36" stroke="#d0d7df"/>
    <line x1="0" y1="54" x2="130" y2="54" stroke="#d0d7df"/>
    <line x1="43" y1="0" x2="43" y2="72" stroke="#d0d7df"/>
    <line x1="86" y1="0" x2="86" y2="72" stroke="#d0d7df"/>
    <rect x="0" y="0" width="130" height="18" class="hi"/>
  </g>
  <text x="63" y="329" class="small muted">row "." -> next char distribution</text>

  <path d="M315 235 L374 235" class="line"/>

  <rect x="385" y="120" width="260" height="230" rx="10" class="panel"/>
  <text x="410" y="153" class="text green">2 previous chars</text>
  <text x="410" y="181" class="label ink">27 x 27 = 729 rows</text>
  <text x="410" y="211" class="small muted">shape: [27, 27, 27]</text>
  <text x="410" y="234" class="small muted">flattened: [729, 27]</text>
  <g transform="translate(410 256)">
    <rect width="130" height="58" class="grid"/>
    <rect x="13" y="9" width="130" height="58" class="grid" opacity="0.72"/>
    <rect x="26" y="18" width="130" height="58" class="grid" opacity="0.72"/>
    <rect x="26" y="18" width="130" height="15" class="hi"/>
  </g>
  <text x="410" y="346" class="small muted">context "em" gets one row</text>

  <path d="M662 235 L721 235" class="line"/>

  <rect x="732" y="120" width="170" height="230" rx="10" class="panel"/>
  <text x="755" y="153" class="text orange">3 previous</text>
  <text x="755" y="181" class="label ink">19683 rows</text>
  <text x="755" y="211" class="small muted">shape:</text>
  <text x="755" y="233" class="small muted">[27,27,27,27]</text>
  <text x="755" y="264" class="small muted">flattened:</text>
  <text x="755" y="286" class="small muted">[19683,27]</text>
  <text x="755" y="328" class="small muted">too many mostly</text>
  <text x="755" y="348" class="small muted">sparse rows</text>

  <text x="38" y="398" class="text ink">MLP replacement: learn a function context -> next-character probabilities instead of storing every row.</text>
</svg>
