<svg xmlns="http://www.w3.org/2000/svg" viewBox="0 0 980 500" role="img" aria-labelledby="title desc">
  <title id="title">Logits, softmax, and target indexing</title>
  <desc id="desc">A diagram showing logits converted to probabilities, selecting the correct target column in each row, then taking negative log likelihood.</desc>
  <defs>
    <style>
      .bg { fill: #fbfbf8; }
      .panel { fill: #ffffff; stroke: #d7dce2; stroke-width: 1.5; }
      .ink { fill: #1f2933; }
      .muted { fill: #627084; }
      .blue { fill: #2563eb; }
      .green { fill: #059669; }
      .orange { fill: #d97706; }
      .cell { fill: #eef2ff; stroke: #8ea2d8; stroke-width: 1; }
      .prob { fill: #ecfdf5; stroke: #7dc8a2; stroke-width: 1; }
      .target { fill: #fef3c7; stroke: #d97706; stroke-width: 1.5; }
      .loss { fill: #fee2e2; stroke: #ef8f8f; stroke-width: 1.2; }
      .line { stroke: #66758a; stroke-width: 1.7; fill: none; marker-end: url(#arrow); }
      .label { font: 700 20px ui-monospace, SFMono-Regular, Menlo, Consolas, monospace; }
      .text { font: 500 15px ui-monospace, SFMono-Regular, Menlo, Consolas, monospace; }
      .small { font: 500 12px ui-monospace, SFMono-Regular, Menlo, Consolas, monospace; }
    </style>
    <marker id="arrow" viewBox="0 0 10 10" refX="8" refY="5" markerWidth="7" markerHeight="7" orient="auto">
      <path d="M 0 0 L 10 5 L 0 10 z" fill="#66758a"/>
    </marker>
  </defs>
  <rect class="bg" width="980" height="500" rx="18"/>
  <text x="38" y="48" class="label ink">Loss reads one probability from each row</text>
  <text x="38" y="78" class="text muted">Each row is one example. Each column is one possible next character.</text>

  <rect x="40" y="120" width="245" height="260" rx="10" class="panel"/>
  <text x="65" y="152" class="label blue">logits [B,27]</text>
  <text x="65" y="182" class="small muted">raw scores, not probabilities</text>
  <g transform="translate(65 220)">
    <rect x="0" y="0" width="168" height="36" rx="5" class="cell"/>
    <rect x="0" y="52" width="168" height="36" rx="5" class="cell"/>
    <text x="14" y="23" class="small ink">-1.2  0.4 ... 2.1</text>
    <text x="14" y="75" class="small ink"> 0.7 -0.5 ... 0.2</text>
  </g>

  <path d="M305 250 L382 250" class="line"/>
  <text x="318" y="225" class="text ink">softmax</text>

  <rect x="395" y="120" width="245" height="260" rx="10" class="panel"/>
  <text x="420" y="152" class="label green">probs [B,27]</text>
  <text x="420" y="182" class="small muted">each row sums to 1</text>
  <g transform="translate(420 220)">
    <rect x="0" y="0" width="168" height="36" rx="5" class="prob"/>
    <rect x="0" y="52" width="168" height="36" rx="5" class="prob"/>
    <rect x="70" y="0" width="38" height="36" rx="5" class="target"/>
    <rect x="116" y="52" width="38" height="36" rx="5" class="target"/>
    <text x="12" y="23" class="small ink">.03 .08 .42 ...</text>
    <text x="12" y="75" class="small ink">.19 .02 .11 ...</text>
  </g>
  <text x="420" y="340" class="small muted">yellow = correct Y column</text>

  <path d="M660 250 L737 250" class="line"/>
  <text x="668" y="225" class="text ink">pick Y</text>

  <rect x="750" y="120" width="190" height="260" rx="10" class="panel"/>
  <text x="775" y="152" class="label orange">correct probs</text>
  <g transform="translate(790 220)">
    <rect x="0" y="0" width="110" height="36" rx="5" class="target"/>
    <text x="28" y="23" class="small ink">0.42</text>
    <rect x="0" y="52" width="110" height="36" rx="5" class="target"/>
    <text x="28" y="75" class="small ink">0.11</text>
  </g>
  <rect x="790" y="330" width="110" height="36" rx="5" class="loss"/>
  <text x="808" y="353" class="small ink">-log mean</text>

  <text x="72" y="448" class="text ink">probs[torch.arange(B), Y] selects one target column per row.</text>
</svg>
