<svg xmlns="http://www.w3.org/2000/svg" viewBox="0 0 920 540" role="img" aria-labelledby="title desc">
  <title id="title">Shape grammar for a rank-3 tensor</title>
  <desc id="desc">A visual guide showing a tensor with shape B by T by E, where B is examples, T is context positions, and E is embedding features.</desc>
  <defs>
    <style>
      .bg { fill: #fbfbf8; }
      .ink { fill: #1f2933; }
      .muted { fill: #5f6b7a; }
      .axisB { fill: #2563eb; }
      .axisT { fill: #059669; }
      .axisE { fill: #d97706; }
      .panel { fill: #ffffff; stroke: #d6d9de; stroke-width: 1.5; }
      .cell { fill: #eef2ff; stroke: #8ea2d8; stroke-width: 1.2; }
      .cell2 { fill: #ecfdf5; stroke: #7dc8a2; stroke-width: 1.2; }
      .feature { fill: #fff7ed; stroke: #e6a155; stroke-width: 1.2; }
      .line { stroke: #657386; stroke-width: 1.7; fill: none; marker-end: url(#arrow); }
      .label { font: 700 20px ui-monospace, SFMono-Regular, Menlo, Consolas, monospace; }
      .text { font: 500 16px ui-monospace, SFMono-Regular, Menlo, Consolas, monospace; }
      .small { font: 500 13px ui-monospace, SFMono-Regular, Menlo, Consolas, monospace; }
    </style>
    <marker id="arrow" viewBox="0 0 10 10" refX="8" refY="5" markerWidth="7" markerHeight="7" orient="auto-start-reverse">
      <path d="M 0 0 L 10 5 L 0 10 z" fill="#657386"/>
    </marker>
  </defs>
  <rect class="bg" width="920" height="540" rx="18"/>
  <text x="40" y="48" class="label ink">Read every shape as named axes</text>
  <text x="40" y="78" class="text muted">Shape numbers are not enough.</text>
  <text x="40" y="105" class="text muted">Attach meaning before using tensor ops.</text>

  <rect x="40" y="145" width="365" height="300" rx="10" class="panel"/>
  <text x="64" y="180" class="label ink">emb.shape = [B, T, E]</text>
  <text x="64" y="212" class="text axisB">B = batch examples</text>
  <text x="64" y="242" class="text axisT">T = context positions</text>
  <text x="64" y="272" class="text axisE">E = embedding features</text>
  <text x="64" y="317" class="text ink">Concrete example:</text>
  <text x="64" y="348" class="text ink">[2, 3, 2]</text>
  <text x="64" y="379" class="small muted">2 examples</text>
  <text x="64" y="402" class="small muted">3 characters per example</text>
  <text x="64" y="425" class="small muted">2 numbers per character</text>

  <rect x="510" y="126" width="310" height="130" rx="8" class="panel"/>
  <text x="535" y="157" class="text axisB">example 0</text>
  <rect x="535" y="178" width="68" height="44" rx="5" class="cell"/>
  <rect x="615" y="178" width="68" height="44" rx="5" class="cell"/>
  <rect x="695" y="178" width="68" height="44" rx="5" class="cell"/>
  <text x="551" y="204" class="small ink">pos 0</text>
  <text x="631" y="204" class="small ink">pos 1</text>
  <text x="711" y="204" class="small ink">pos 2</text>
  <rect x="548" y="227" width="20" height="14" rx="2" class="feature"/>
  <rect x="570" y="227" width="20" height="14" rx="2" class="feature"/>
  <rect x="628" y="227" width="20" height="14" rx="2" class="feature"/>
  <rect x="650" y="227" width="20" height="14" rx="2" class="feature"/>
  <rect x="708" y="227" width="20" height="14" rx="2" class="feature"/>
  <rect x="730" y="227" width="20" height="14" rx="2" class="feature"/>

  <rect x="545" y="286" width="310" height="130" rx="8" class="panel"/>
  <text x="570" y="317" class="text axisB">example 1</text>
  <rect x="570" y="338" width="68" height="44" rx="5" class="cell2"/>
  <rect x="650" y="338" width="68" height="44" rx="5" class="cell2"/>
  <rect x="730" y="338" width="68" height="44" rx="5" class="cell2"/>
  <text x="586" y="364" class="small ink">pos 0</text>
  <text x="666" y="364" class="small ink">pos 1</text>
  <text x="746" y="364" class="small ink">pos 2</text>
  <rect x="583" y="387" width="20" height="14" rx="2" class="feature"/>
  <rect x="605" y="387" width="20" height="14" rx="2" class="feature"/>
  <rect x="663" y="387" width="20" height="14" rx="2" class="feature"/>
  <rect x="685" y="387" width="20" height="14" rx="2" class="feature"/>
  <rect x="743" y="387" width="20" height="14" rx="2" class="feature"/>
  <rect x="765" y="387" width="20" height="14" rx="2" class="feature"/>

  <path d="M470 200 C445 200 445 345 505 345" class="line"/>
  <text x="455" y="266" class="small muted">B axis stacks</text>
  <text x="455" y="288" class="small muted">examples</text>
  <text x="535" y="474" class="small muted">Inside each example: T boxes.</text>
  <text x="535" y="497" class="small muted">Inside each T box: E feature numbers.</text>
</svg>
