<svg xmlns="http://www.w3.org/2000/svg" viewBox="0 0 760 190" role="img" aria-labelledby="title desc">
  <title id="title">Saturation mask for hidden tanh activations</title>
  <desc id="desc">A black and white mask showing which hidden activations are saturated near negative one or positive one.</desc>
  <rect width="760" height="190" fill="#ffffff"/>

  <defs>
    <clipPath id="plot-clip">
      <rect x="82" y="28" width="626" height="104"/>
    </clipPath>
  </defs>

  <g font-family="Inter, ui-sans-serif, system-ui, -apple-system, BlinkMacSystemFont, Segoe UI, sans-serif" fill="#2b2f33">
    <text x="22" y="36" font-size="18">0</text>
    <text x="14" y="107" font-size="18">20</text>

    <g stroke="#2b2f33" stroke-width="1.5">
      <line x1="82" y1="132" x2="708" y2="132"/>
      <line x1="82" y1="28" x2="82" y2="132"/>
      <line x1="82" y1="132" x2="82" y2="143"/>
      <line x1="160" y1="132" x2="160" y2="143"/>
      <line x1="238" y1="132" x2="238" y2="143"/>
      <line x1="316" y1="132" x2="316" y2="143"/>
      <line x1="394" y1="132" x2="394" y2="143"/>
      <line x1="472" y1="132" x2="472" y2="143"/>
      <line x1="550" y1="132" x2="550" y2="143"/>
      <line x1="628" y1="132" x2="628" y2="143"/>
    </g>

    <text x="76" y="168" font-size="18">0</text>
    <text x="147" y="168" font-size="18">25</text>
    <text x="225" y="168" font-size="18">50</text>
    <text x="303" y="168" font-size="18">75</text>
    <text x="374" y="168" font-size="18">100</text>
    <text x="452" y="168" font-size="18">125</text>
    <text x="530" y="168" font-size="18">150</text>
    <text x="608" y="168" font-size="18">175</text>
  </g>

  <g clip-path="url(#plot-clip)">
    <rect x="82" y="28" width="626" height="104" fill="#050505"/>

    <g fill="#ffffff">
      <rect x="85" y="30" width="8" height="19"/>
      <rect x="98" y="30" width="5" height="10"/>
      <rect x="110" y="30" width="14" height="21"/>
      <rect x="132" y="30" width="7" height="36"/>
      <rect x="146" y="30" width="12" height="16"/>
      <rect x="176" y="30" width="13" height="8"/>
      <rect x="208" y="30" width="18" height="15"/>
      <rect x="238" y="30" width="8" height="23"/>
      <rect x="255" y="30" width="12" height="42"/>
      <rect x="290" y="30" width="19" height="14"/>
      <rect x="329" y="30" width="9" height="28"/>
      <rect x="356" y="28" width="7" height="104"/>
      <rect x="382" y="30" width="18" height="8"/>
      <rect x="423" y="30" width="13" height="27"/>
      <rect x="469" y="30" width="6" height="47"/>
      <rect x="494" y="30" width="11" height="18"/>
      <rect x="520" y="30" width="20" height="14"/>
      <rect x="558" y="30" width="9" height="38"/>
      <rect x="593" y="30" width="11" height="23"/>
      <rect x="625" y="30" width="19" height="11"/>
      <rect x="665" y="30" width="13" height="17"/>
      <rect x="693" y="30" width="10" height="31"/>

      <rect x="88" y="48" width="17" height="12"/>
      <rect x="119" y="52" width="6" height="22"/>
      <rect x="141" y="51" width="21" height="8"/>
      <rect x="171" y="45" width="12" height="35"/>
      <rect x="196" y="50" width="20" height="13"/>
      <rect x="226" y="49" width="10" height="31"/>
      <rect x="248" y="55" width="29" height="10"/>
      <rect x="286" y="47" width="8" height="42"/>
      <rect x="309" y="51" width="19" height="12"/>
      <rect x="340" y="57" width="14" height="11"/>
      <rect x="370" y="50" width="15" height="38"/>
      <rect x="397" y="53" width="28" height="9"/>
      <rect x="443" y="50" width="18" height="25"/>
      <rect x="477" y="56" width="9" height="20"/>
      <rect x="508" y="48" width="16" height="31"/>
      <rect x="545" y="51" width="23" height="9"/>
      <rect x="579" y="48" width="9" height="43"/>
      <rect x="610" y="54" width="19" height="13"/>
      <rect x="649" y="50" width="11" height="34"/>
      <rect x="684" y="54" width="19" height="9"/>

      <rect x="84" y="68" width="23" height="9"/>
      <rect x="115" y="75" width="9" height="28"/>
      <rect x="134" y="70" width="18" height="14"/>
      <rect x="161" y="68" width="11" height="39"/>
      <rect x="188" y="73" width="27" height="8"/>
      <rect x="222" y="82" width="17" height="11"/>
      <rect x="247" y="74" width="9" height="35"/>
      <rect x="271" y="77" width="23" height="10"/>
      <rect x="304" y="69" width="11" height="31"/>
      <rect x="325" y="76" width="28" height="10"/>
      <rect x="364" y="73" width="13" height="34"/>
      <rect x="391" y="74" width="12" height="37"/>
      <rect x="411" y="70" width="20" height="12"/>
      <rect x="438" y="82" width="28" height="10"/>
      <rect x="484" y="74" width="12" height="39"/>
      <rect x="502" y="80" width="25" height="9"/>
      <rect x="535" y="70" width="13" height="26"/>
      <rect x="570" y="78" width="22" height="11"/>
      <rect x="606" y="72" width="10" height="38"/>
      <rect x="635" y="83" width="23" height="10"/>
      <rect x="673" y="71" width="8" height="31"/>
      <rect x="691" y="76" width="14" height="14"/>

      <rect x="91" y="96" width="16" height="29"/>
      <rect x="128" y="96" width="25" height="10"/>
      <rect x="178" y="93" width="13" height="37"/>
      <rect x="203" y="101" width="21" height="9"/>
      <rect x="237" y="93" width="8" height="33"/>
      <rect x="265" y="101" width="19" height="12"/>
      <rect x="296" y="95" width="23" height="9"/>
      <rect x="335" y="97" width="17" height="32"/>
      <rect x="379" y="93" width="21" height="10"/>
      <rect x="424" y="96" width="10" height="31"/>
      <rect x="453" y="103" width="28" height="10"/>
      <rect x="497" y="95" width="15" height="34"/>
      <rect x="530" y="99" width="20" height="10"/>
      <rect x="566" y="94" width="9" height="31"/>
      <rect x="595" y="101" width="21" height="12"/>
      <rect x="630" y="96" width="18" height="30"/>
      <rect x="661" y="101" width="24" height="10"/>
      <rect x="696" y="94" width="8" height="35"/>
    </g>
  </g>

  <rect x="82" y="28" width="626" height="104" fill="none" stroke="#2b2f33" stroke-width="1.5"/>
</svg>
